# xmcd
#
# Track frame offsets:
# 150
# 21518
# 42297
# 56989
# 73829
# 94768
# 111019
# 128228
# 148904
# 169117
# 187710
# 207590
# 224295
# 237807
# 255860
# 275403
#
# Disc length: 3926 seconds
#
#
# Revision: 0
# Processed by: cddbd v1.5.2PL0 Copyright (c) Steve Scherf et al.
# Submitted via: FreeRIP 2.944 
#
DISCID=f10f5410
DTITLE=Daniel - Daniel
DYEAR=1998
DGENRE=Country
TTITLE0=Adoro amar voce
TTITLE1=Declaracao de amor
TTITLE2=Dengo
TTITLE3=Saudade faz doer
TTITLE4=Doendo de saudade
TTITLE5=Nao empurra nao
TTITLE6=Quem ama e que faz
TTITLE7=Pra falar a verdade
TTITLE8=E quando voce me deixou
TTITLE9=Eu quero ter felicidade
TTITLE10=Me guardo pra voce
TTITLE11=Uma noite
TTITLE12=Peao apaixonado
TTITLE13=Daqui nao saio nao
TTITLE14=A paixao acaba sempre assim
TTITLE15=Paixao caipira
EXTD=Year 1998
EXTT0=
EXTT1=
EXTT2=
EXTT3=
EXTT4=
EXTT5=
EXTT6=
EXTT7=
EXTT8=
EXTT9=
EXTT10=
EXTT11=
EXTT12=
EXTT13=
EXTT14=
EXTT15=
PLAYORDER=
